<svg xmlns="http://www.w3.org/2000/svg" version="1.1" xmlns:xlink="http://www.w3.org/1999/xlink" xmlns:svgjs="http://svgjs.com/svgjs" width="1920" height="1080" preserveAspectRatio="none" viewBox="0 0 1920 1080"><g mask="url(&quot;#SvgjsMask1001&quot;)" fill="none"><rect width="1920" height="1080" x="0" y="0" fill="#0e2a47"></rect><path d="M1165.785,430.479C1220.397,429.338,1267.34,399.224,1298.311,354.229C1335.211,300.621,1372.589,233.464,1340.283,176.969C1307.862,120.273,1230.833,116.616,1165.785,122.476C1111.937,127.327,1066.21,157.804,1038.396,204.167C1009.625,252.125,995.87,311.241,1023.303,359.977C1051.162,409.47,1109.002,431.666,1165.785,430.479" fill="rgba(28, 83, 142, 0.4)" class="triangle-float1"></path><path d="M58.46 796.32 a252.97 252.97 0 1 0 505.94 0 a252.97 252.97 0 1 0 -505.94 0z" fill="rgba(28, 83, 142, 0.4)" class="triangle-float2"></path><path d="M339.501,1238.875C418.279,1238.668,497.378,1210.671,538.216,1143.305C580.438,1073.655,575.191,986.536,535.627,915.343C494.829,841.929,423.473,787.394,339.501,785.726C252.8,784.004,171.722,831.586,129.4,907.275C88.029,981.263,93.603,1072.746,138.972,1144.352C181.362,1211.255,260.299,1239.083,339.501,1238.875" fill="rgba(28, 83, 142, 0.4)" class="triangle-float1"></path><path d="M1617.91 241.66 a286.05 286.05 0 1 0 572.1 0 a286.05 286.05 0 1 0 -572.1 0z" fill="rgba(28, 83, 142, 0.4)" class="triangle-float2"></path><path d="M553.526,271.569C605.933,272.282,651.734,242.351,680.921,198.818C714.57,148.63,741.703,86.341,713.565,32.869C684.079,-23.164,616.84,-43.965,553.526,-43.274C491.569,-42.598,427.538,-18.919,399.426,36.298C373.097,88.013,400.198,146.887,431.995,195.433C460.068,238.293,502.296,270.872,553.526,271.569" fill="rgba(28, 83, 142, 0.4)" class="triangle-float2"></path><path d="M160.75 927.07 a353.61 353.61 0 1 0 707.22 0 a353.61 353.61 0 1 0 -707.22 0z" fill="rgba(28, 83, 142, 0.4)" class="triangle-float1"></path><path d="M340.22 591.92 a227.92 227.92 0 1 0 455.84 0 a227.92 227.92 0 1 0 -455.84 0z" fill="rgba(28, 83, 142, 0.4)" class="triangle-float1"></path><path d="M1241.739,950.456C1333.798,948.886,1420.054,898.281,1461.698,816.165C1500.062,740.516,1474.883,652.402,1429.102,580.997C1387.409,515.969,1318.958,471.045,1241.739,473.093C1167.687,475.057,1111.861,528.82,1070.833,590.499C1023.026,662.369,971.364,745.923,1008.386,823.898C1049.064,909.573,1146.912,952.074,1241.739,950.456" fill="rgba(28, 83, 142, 0.4)" class="triangle-float2"></path><path d="M50.74 880.45 a355.68 355.68 0 1 0 711.36 0 a355.68 355.68 0 1 0 -711.36 0z" fill="rgba(28, 83, 142, 0.4)" class="triangle-float2"></path><path d="M390.899,273.289C433.335,274.477,476.312,257.207,497.244,220.273C517.937,183.762,509.759,138.669,487.283,103.228C466.45,70.379,429.796,52.357,390.899,52.589C352.43,52.818,316.172,71.314,296.484,104.364C276.325,138.204,275.173,180.212,294.39,214.595C314.079,249.821,350.56,272.16,390.899,273.289" fill="rgba(28, 83, 142, 0.4)" class="triangle-float2"></path></g><defs><mask id="SvgjsMask1001"><rect width="1920" height="1080" fill="#ffffff"></rect></mask><style>
            @keyframes float1 {
                0%{transform: translate(0, 0)}
                50%{transform: translate(-10px, 0)}
                100%{transform: translate(0, 0)}
            }

            .triangle-float1 {
                animation: float1 5s infinite;
            }

            @keyframes float2 {
                0%{transform: translate(0, 0)}
                50%{transform: translate(-5px, -5px)}
                100%{transform: translate(0, 0)}
            }

            .triangle-float2 {
                animation: float2 4s infinite;
            }

            @keyframes float3 {
                0%{transform: translate(0, 0)}
                50%{transform: translate(0, -10px)}
                100%{transform: translate(0, 0)}
            }

            .triangle-float3 {
                animation: float3 6s infinite;
            }
        </style></defs></svg>